<svg width="30" height="31" fill="none" xmlns="http://www.w3.org/2000/svg"><g clip-path="url(#a)" fill="#fff"><path d="M21.276 18.473c-1.706 0-3.088 1.478-3.088 3.301 0 1.824 1.383 3.302 3.088 3.302 1.706 0 3.088-1.478 3.088-3.302 0-1.823-1.383-3.3-3.088-3.3Zm0 5.013c-.884 0-1.6-.766-1.6-1.71 0-.947.716-1.713 1.6-1.713.884 0 1.602.766 1.602 1.712 0 .945-.718 1.711-1.602 1.711ZM12.106-.01c-1.76 0-3.187 1.525-3.187 3.407 0 1.882 1.427 3.407 3.188 3.407s3.187-1.524 3.187-3.407S13.867-.01 12.107-.01Zm0 5.476c-1.069 0-1.935-.926-1.935-2.07 0-1.142.866-2.069 1.935-2.069 1.07 0 1.936.927 1.936 2.07 0 1.143-.866 2.069-1.936 2.069ZM8.727 17.61c-1.294 0-2.341 1.12-2.341 2.503s1.047 2.503 2.34 2.503c1.295 0 2.342-1.12 2.342-2.503s-1.047-2.503-2.341-2.503ZM8.5 19.5c-.459 0 1.158 1.104 1.158.613 0-.49-1.617.387-1.158.387.459 0 1.057-.877 1.057-.388 0 .49-.598-.612-1.057-.612ZM19 9.763s3.04-.839 6.178 1.494c.907.76 1.765 1.336 1.152 2.122-.343.34-.637.657-1.716-.524-1.054-.76-2.72-1.898-5.614-1.442-1.128.237-1.961.551-3.556 2.15-1.593 1.598-3.972 2.725-6.497 2.489-2.525-.236-3.849-1.258-5.246-2.542-.294-.42-.294-.865-.123-1.127.171-.262.833-.524 1.201-.132.368.394 2.109 1.966 3.825 2.07 1.716.105 3.433.21 5.737-1.965 2.306-2.174 3.458-2.331 4.66-2.593Z"/><mask id="b"><path d="M29.146 26.816V8.157c0-.578-.374-.65-.524-.655h-.506c-.493 0-.536.557-.538.739v.06c.002 3.609.01 18.254-.002 18.54a2.681 2.681 0 0 1-.82 1.887c-.809.695-1.618.603-1.618.603s-20.177 0-20.656-.026c-.38-.065-1.041-.21-1.605-1.01-.564-.798-.453-1.847-.453-1.847V8.316c0-.839-.675-.812-.675-.812h-.307c-.536 0-.585.588-.588.776v18.537c0 1.337.454 2.398 1.548 3.337 1.094.939 2.375.856 2.375.856s19.723 0 20.581-.002c.859-.003 1.986-.417 2.916-1.556.93-1.138.872-2.635.872-2.635Z"/></mask><path d="M29.146 26.816V8.157c0-.578-.374-.65-.524-.655h-.506c-.493 0-.536.557-.538.739v.06c.002 3.609.01 18.254-.002 18.54a2.681 2.681 0 0 1-.82 1.887c-.809.695-1.618.603-1.618.603s-20.177 0-20.656-.026c-.38-.065-1.041-.21-1.605-1.01-.564-.798-.453-1.847-.453-1.847V8.316c0-.839-.675-.812-.675-.812h-.307c-.536 0-.585.588-.588.776v18.537c0 1.337.454 2.398 1.548 3.337 1.094.939 2.375.856 2.375.856s19.723 0 20.581-.002c.859-.003 1.986-.417 2.916-1.556.93-1.138.872-2.635.872-2.635Z"/><path d="M29.146 26.816h-20v.387l.015.387 19.985-.774Zm-.524-19.314.71-19.987-.355-.013h-.355v20Zm-1.044.739-20-.15v.15h20Zm0 .06h-20v.008l20-.008Zm-.002 18.54-19.985-.758v.013l19.985.745Zm-.82 1.887 13.039 15.165.431-.37.41-.396-13.88-14.399Zm-1.618.603 2.26-19.872-1.127-.128h-1.133v20Zm-20.656-.026-3.394 19.71 1.134.195 1.148.064 1.113-19.97Zm-1.605-1.01-16.344 11.528.004.006 16.34-11.533Zm-.453-1.847 19.89 2.098.11-1.046v-1.052h-20ZM1.749 7.503v20h.388l.387-.015L1.75 7.503Zm-.895.776-19.998-.288-.002.144v.144h20Zm1.548 21.874L-10.624 45.33 2.403 30.153Zm2.375.856v-20h-.643l-.64.042 1.283 19.958Zm23.497-1.557 15.49 12.653.005-.008-15.495-12.645Zm20.872-2.636V8.157h-40v18.659h40Zm0-18.659c0-4.97-1.859-11.419-7.618-16.084-4.89-3.96-10.03-4.481-12.196-4.558l-1.42 39.975a19.462 19.462 0 0 1-11.56-4.333c-5.535-4.483-7.206-10.608-7.206-15h40ZM28.622-12.498h-.506v40h.506v-40Zm-.506 0a20.47 20.47 0 0 0-12.283 4.083A20.526 20.526 0 0 0 9.414-.38 21.132 21.132 0 0 0 7.58 8.09l39.999.299c-.006.733-.014 3.914-1.667 7.598a19.474 19.474 0 0 1-6.096 7.61 19.53 19.53 0 0 1-11.699 3.904v-40ZM7.578 8.241v.05h40v-.05h-40Zm0 .05v.01h40v-.01h-40Zm0 .018.004 10.511a9586.501 9586.501 0 0 1-.002 7.252c-.002.788-.006.45.01.011L47.563 27.6c.02-.51.018-1.37.018-1.45l.002-1.808v-5.528c0-4.15-.003-8.719-.004-10.52l-40 .016Zm.012 17.787c.05-1.35.384-7.042 5.285-11.767l27.761 28.798c6.396-6.166 6.852-13.536 6.927-15.54L7.59 26.096Zm6.126-12.533a17.512 17.512 0 0 1 7.807-3.843 17.962 17.962 0 0 1 3.25-.379 18.612 18.612 0 0 1 1.378.017 19.227 19.227 0 0 1 1.172.093l.037.004.019.002c.01.001.019.002-2.241 19.874-2.26 19.872-2.25 19.873-2.241 19.874l.018.002.038.005.076.008a20.68 20.68 0 0 0 1.169.09 21.378 21.378 0 0 0 1.583.019 22.044 22.044 0 0 0 3.983-.468 22.487 22.487 0 0 0 10.03-4.968l-26.078-30.33Zm11.422 15.768v-20h-.866a17598.019 17598.019 0 0 1-9.27-.003A6059.395 6059.395 0 0 1 7.95 9.32a1077.61 1077.61 0 0 1-2.357-.006c-1.071-.005-.613-.013.002.022L3.37 49.274c.97.054 7.17.051 11.606.054l6.997.003h3.165v-20ZM7.877 9.595c.432.074 2.526.427 4.938 1.653a17.618 17.618 0 0 1 6.401 5.514L-13.463 39.83c4.995 7.076 11.877 8.725 14.551 9.186l6.789-39.42Zm11.343 7.174c2.35 3.33 2.91 6.508 3.08 7.954.101.854.121 1.595.113 2.183a17.393 17.393 0 0 1-.034.859 18.336 18.336 0 0 1-.056.686l-.005.048-.002.024-.002.012c0 .005 0 .011-19.89-2.087-19.89-2.098-19.89-2.092-19.891-2.086l-.002.012a19.73 19.73 0 0 0-.007.073 20.547 20.547 0 0 0-.03.312 21.677 21.677 0 0 0-.034.467c-.02.329-.037.704-.043 1.117a23.433 23.433 0 0 0 .16 3.08c.257 2.169 1.043 6.27 3.956 10.4L19.22 16.768Zm3.204 9.68V8.314h-40v18.133h40Zm0-18.134c0-6.89-3.412-14.004-10.265-17.999a20.69 20.69 0 0 0-6.982-2.526 20.65 20.65 0 0 0-3.367-.287 20.292 20.292 0 0 0-.787.013H.998c-.012.001-.024.002.751 19.987s.763 19.985.751 19.986h-.024l-.05.002a21.12 21.12 0 0 1-.3.008 19.666 19.666 0 0 1-1.347-.02 19.31 19.31 0 0 1-8.765-2.606 19.387 19.387 0 0 1-7.239-7.434 19.029 19.029 0 0 1-2.351-9.124h40ZM1.748-12.497h-.307v40h.307v-40Zm-.307 0c-4.037 0-8.32 1.191-12.061 3.905a20.563 20.563 0 0 0-6.553 7.946 21.166 21.166 0 0 0-1.972 8.636l39.996.577c-.011.759-.045 3.997-1.784 7.72a19.438 19.438 0 0 1-6.2 7.5 19.477 19.477 0 0 1-11.426 3.716v-40ZM-19.146 8.279v18.537h40V8.279h-40Zm0 18.537c0 7.063 2.92 13.705 8.522 18.514l26.052-30.354c1.294 1.111 2.854 2.871 3.993 5.373a15.716 15.716 0 0 1 1.433 6.467h-40Zm8.523 18.514A23.586 23.586 0 0 0-.143 50.5a23.616 23.616 0 0 0 3.69.482c.513.026.981.032 1.397.028a21.335 21.335 0 0 0 .991-.034l.063-.004.031-.002h.015c.008-.001.016-.002-1.267-19.96C3.494 11.05 3.5 11.05 3.509 11.05a1.16 1.16 0 0 1 .015-.001l.03-.002.062-.004a19.735 19.735 0 0 1 .371-.018 18.5 18.5 0 0 1 1.584.008 16.387 16.387 0 0 1 2.571.334 16.413 16.413 0 0 1 7.285 3.609l-26.05 30.354Zm15.4-14.32v20H7.872l6.875-.001c5.007 0 10.202 0 10.668-.002l-.113-40H24.22l-2.443.001-7.032.001H4.776v20Zm20.638 19.997c7.104-.02 13.8-3.336 18.348-8.902L12.786 16.799c2.686-3.29 7.128-5.777 12.516-5.792l.113 40Zm18.354-8.91c3.246-3.977 4.434-8.096 4.913-10.529a24.742 24.742 0 0 0 .425-3.354 23.583 23.583 0 0 0 .039-1.226 21.801 21.801 0 0 0-.015-.934c0-.006 0-.013-19.985.762s-19.986.767-19.986.761v-.013l-.001-.025a18.378 18.378 0 0 1-.01-.354 17.879 17.879 0 0 1-.002-.41 16.42 16.42 0 0 1 .026-.854c.033-.577.105-1.28.262-2.076.275-1.4 1.028-4.201 3.344-7.039l30.99 25.291Z" mask="url(#b)"/></g><defs><clipPath id="a"><path fill="#fff" transform="translate(.5)" d="M0 0h29v31H0z"/></clipPath></defs></svg>