<svg width="118" height="22" fill="none" xmlns="http://www.w3.org/2000/svg"><path d="M1.664 19.661a8.174 8.174 0 0 1-1.4-5.148v-7.44a8.3 8.3 0 0 1 1.38-5.197C2.571.692 4.154.104 6.394.11c2.24.007 3.757.526 4.55 1.557a6.628 6.628 0 0 1 1.33 4.454v1.746h-4.14V5.972a9.842 9.842 0 0 0-.13-1.487 1.661 1.661 0 0 0-.47-.943 1.564 1.564 0 0 0-1.15-.367 1.47 1.47 0 0 0-1.5.744 5.386 5.386 0 0 0-.34 2.182v9.444a4.708 4.708 0 0 0 .39 2.182 1.49 1.49 0 0 0 1.45.724c.282.04.569-.01.82-.142.252-.132.455-.34.58-.592a5.75 5.75 0 0 0 .31-2.172V13.56h4.14v1.716a7.147 7.147 0 0 1-1.23 4.572c-.88 1.092-2.4 1.627-4.56 1.627-2.16 0-3.85-.595-4.78-1.815ZM17.915.398h4.74l4 20.83h-3.94l-.71-4.602h-3.32l-.8 4.573h-4L17.915.398Zm3.65 13.61-1.26-8.373-1.25 8.372h2.51ZM29.726 3.532h-3.24V.398h10.72v3.134h-3.2V21.2h-4.29l.01-17.667Z" fill="#111"/><path d="M45.617.398h8.13V2.56h-5.2v6.874h4.22v2.054h-4.22v7.628h5.25v2.083h-8.18V.398ZM56.157.398h2l6 13.817V.398h2.44v20.83h-1.87l-6-14.204v14.175h-2.48L56.157.398ZM69.828.398h8.12V2.56h-5.2v6.874h4.26v2.054h-4.22v7.628h5.22v2.083h-8.18V.398ZM80.358.398h4.22a7.042 7.042 0 0 1 4.67 1.3c1 .862 1.49 2.27 1.49 4.225 0 2.645-.863 4.262-2.59 4.85l3 10.426h-2.84l-2.75-9.761h-2.27v9.76h-2.93V.399Zm4 8.927a3.893 3.893 0 0 0 2.7-.754 3.533 3.533 0 0 0 .82-2.688 5.76 5.76 0 0 0-.29-1.984 1.872 1.872 0 0 0-1-1.071 4.795 4.795 0 0 0-2.05-.347h-1.29v6.884l1.11-.04ZM94.679 19.661a9.116 9.116 0 0 1-1.27-5.307V7.411c-.035-1.34.134-2.678.5-3.968a4.445 4.445 0 0 1 1.74-2.39 5.948 5.948 0 0 1 3.36-.834 5.298 5.298 0 0 1 4.18 1.468 6.904 6.904 0 0 1 1.28 4.593v.774h-2.75v-.645a11.309 11.309 0 0 0-.18-2.301 1.98 1.98 0 0 0-.76-1.22 3.02 3.02 0 0 0-1.72-.407 2.534 2.534 0 0 0-1.81.555c-.415.39-.686.907-.77 1.468a14.566 14.566 0 0 0-.17 2.47v7.727a7.396 7.396 0 0 0 .59 3.433 2.85 2.85 0 0 0 4.47-.09 7.994 7.994 0 0 0 .61-3.62v-1.468h-2.66v-2.054h5.3V21.2h-1.81l-.29-2.391a3.661 3.661 0 0 1-1.4 1.969c-.677.48-1.498.72-2.33.68a4.694 4.694 0 0 1-2.288-.375 4.655 4.655 0 0 1-1.822-1.42ZM110.699 13.858l-4.53-13.46h2.72l3.21 10.038 3.16-10.038h2.75l-4.5 13.46v7.34h-2.8l-.01-7.34Z" fill="#444"/></svg>