<svg width="22" height="22" viewBox="0 0 22 22" xmlns="http://www.w3.org/2000/svg">
<path d="M10.9844 3.0625C12.3177 3.0625 13.4062 3.07812 14.25 3.10937C14.9688 3.14062 15.6094 3.26562 16.1719 3.48437C16.7135 3.69271 17.1823 3.99479 17.5781 4.39062C17.974 4.78646 18.276 5.25521 18.4844 5.79687C18.7031 6.35937 18.8281 7 18.8594 7.71875C18.8906 8.5625 18.9062 9.65104 18.9062 10.9844C18.9062 12.3177 18.8906 13.4062 18.8594 14.25C18.8281 14.9687 18.7031 15.6094 18.4844 16.1719C18.276 16.7135 17.974 17.1823 17.5781 17.5781C17.1823 17.974 16.7135 18.276 16.1719 18.4844C15.6094 18.7031 14.9688 18.8281 14.25 18.8594C13.4062 18.8906 12.3177 18.9062 10.9844 18.9062C9.65104 18.9062 8.5625 18.8906 7.71875 18.8594C7 18.8281 6.35938 18.7031 5.79688 18.4844C5.25521 18.276 4.78646 17.974 4.39062 17.5781C3.99479 17.1823 3.69271 16.7135 3.48438 16.1719C3.26562 15.6094 3.14062 14.9687 3.10938 14.25C3.07812 13.4062 3.0625 12.3177 3.0625 10.9844C3.0625 9.65104 3.07812 8.5625 3.10938 7.71875C3.14062 7 3.26562 6.35937 3.48438 5.79687C3.69271 5.25521 3.99479 4.78646 4.39062 4.39062C4.78646 3.99479 5.25521 3.69271 5.79688 3.48437C6.35938 3.26562 7 3.14062 7.71875 3.10937C8.5625 3.07812 9.65104 3.0625 10.9844 3.0625ZM10.9844 4.09375C9.59896 4.09375 8.46875 4.10937 7.59375 4.14062C7.03125 4.16146 6.51042 4.26042 6.03125 4.4375C5.28125 4.75 4.75 5.28125 4.4375 6.03125C4.26042 6.51042 4.16146 7.03125 4.14062 7.59375C4.10938 8.46875 4.09375 9.59896 4.09375 10.9844C4.09375 12.3698 4.10938 13.5 4.14062 14.375C4.16146 14.9375 4.26042 15.4583 4.4375 15.9375C4.75 16.6875 5.28125 17.2187 6.03125 17.5312C6.51042 17.7083 7.03125 17.8073 7.59375 17.8281C8.46875 17.8594 9.59896 17.875 10.9844 17.875C12.3698 17.875 13.5 17.8594 14.375 17.8281C14.9375 17.8073 15.4583 17.7083 15.9375 17.5312C16.6875 17.2187 17.2188 16.6875 17.5312 15.9375C17.7083 15.4583 17.8073 14.9375 17.8281 14.375C17.8594 13.5 17.875 12.3698 17.875 10.9844C17.875 9.59896 17.8594 8.46875 17.8281 7.59375C17.8073 7.03125 17.7083 6.51042 17.5312 6.03125C17.2188 5.28125 16.6875 4.75 15.9375 4.4375C15.4583 4.26042 14.9375 4.16146 14.375 4.14062C13.5 4.10937 12.3698 4.09375 10.9844 4.09375ZM10.9844 14.1562C11.8594 14.1562 12.6068 13.8464 13.2266 13.2266C13.8464 12.6068 14.1562 11.8594 14.1562 10.9844C14.1562 10.1094 13.8464 9.36198 13.2266 8.74219C12.6068 8.1224 11.8594 7.8125 10.9844 7.8125C10.1094 7.8125 9.36198 8.1224 8.74219 8.74219C8.1224 9.36198 7.8125 10.1094 7.8125 10.9844C7.8125 11.8594 8.1224 12.6068 8.74219 13.2266C9.36198 13.8464 10.1094 14.1562 10.9844 14.1562ZM10.9844 6.92187C12.1094 6.92187 13.0677 7.31771 13.8594 8.10937C14.651 8.90104 15.0469 9.85937 15.0469 10.9844C15.0469 12.1094 14.651 13.0677 13.8594 13.8594C13.0677 14.651 12.1094 15.0469 10.9844 15.0469C9.85938 15.0469 8.90104 14.651 8.10938 13.8594C7.31771 13.0677 6.92188 12.1094 6.92188 10.9844C6.92188 9.85937 7.31771 8.90104 8.10938 8.10937C8.90104 7.31771 9.85938 6.92187 10.9844 6.92187ZM16.1719 6.76562C16.1719 7.02604 16.0781 7.2474 15.8906 7.42969C15.7031 7.61198 15.474 7.70312 15.2031 7.70312C14.9427 7.70312 14.7214 7.61198 14.5391 7.42969C14.3568 7.2474 14.2656 7.02604 14.2656 6.76562C14.2656 6.49479 14.3568 6.26562 14.5391 6.07812C14.7214 5.89062 14.9427 5.79687 15.2031 5.79687C15.4635 5.79687 15.6901 5.89323 15.8828 6.08594C16.0755 6.27865 16.1719 6.50521 16.1719 6.76562Z"/>
</svg>
