<svg width="22" height="22" viewBox="0 0 22 22" xmlns="http://www.w3.org/2000/svg">
<path d="M10.9785 0.0859375C12.8118 0.0859375 14.3086 0.107422 15.4688 0.150391C16.457 0.193359 17.3379 0.365234 18.1113 0.666016C18.8561 0.952474 19.5007 1.36784 20.0449 1.91211C20.5892 2.45638 21.0046 3.10091 21.291 3.8457C21.5918 4.61914 21.7637 5.5 21.8066 6.48828C21.8496 7.64844 21.8711 9.14518 21.8711 10.9785C21.8711 12.8118 21.8496 14.3086 21.8066 15.4687C21.7637 16.457 21.5918 17.3379 21.291 18.1113C21.0046 18.8561 20.5892 19.5006 20.0449 20.0449C19.5007 20.5892 18.8561 21.0046 18.1113 21.291C17.3379 21.5918 16.457 21.7637 15.4688 21.8066C14.3086 21.8496 12.8118 21.8711 10.9785 21.8711C9.14518 21.8711 7.64844 21.8496 6.48828 21.8066C5.5 21.7637 4.61914 21.5918 3.8457 21.291C3.10091 21.0046 2.45638 20.5892 1.91211 20.0449C1.36784 19.5006 0.952474 18.8561 0.666016 18.1113C0.365234 17.3379 0.193359 16.457 0.150391 15.4687C0.107422 14.3086 0.0859375 12.8118 0.0859375 10.9785C0.0859375 9.14518 0.107422 7.64844 0.150391 6.48828C0.193359 5.5 0.365234 4.61914 0.666016 3.8457C0.952474 3.10091 1.36784 2.45638 1.91211 1.91211C2.45638 1.36784 3.10091 0.952474 3.8457 0.666016C4.61914 0.365234 5.5 0.193359 6.48828 0.150391C7.64844 0.107422 9.14518 0.0859375 10.9785 0.0859375ZM10.9785 1.50391C9.07357 1.50391 7.51953 1.52539 6.31641 1.56836C5.54297 1.59701 4.82682 1.73307 4.16797 1.97656C3.13672 2.40625 2.40625 3.13672 1.97656 4.16797C1.73307 4.82682 1.59701 5.54297 1.56836 6.31641C1.52539 7.51953 1.50391 9.07357 1.50391 10.9785C1.50391 12.8835 1.52539 14.4375 1.56836 15.6406C1.59701 16.4141 1.73307 17.1302 1.97656 17.7891C2.40625 18.8203 3.13672 19.5508 4.16797 19.9805C4.82682 20.224 5.54297 20.36 6.31641 20.3887C7.51953 20.4316 9.07357 20.4531 10.9785 20.4531C12.8835 20.4531 14.4375 20.4316 15.6406 20.3887C16.4141 20.36 17.1302 20.224 17.7891 19.9805C18.8203 19.5508 19.5508 18.8203 19.9805 17.7891C20.224 17.1302 20.36 16.4141 20.3887 15.6406C20.4316 14.4375 20.4531 12.8835 20.4531 10.9785C20.4531 9.07357 20.4316 7.51953 20.3887 6.31641C20.36 5.54297 20.224 4.82682 19.9805 4.16797C19.5508 3.13672 18.8203 2.40625 17.7891 1.97656C17.1302 1.73307 16.4141 1.59701 15.6406 1.56836C14.4375 1.52539 12.8835 1.50391 10.9785 1.50391ZM10.9785 15.3398C12.1816 15.3398 13.2093 14.9137 14.0615 14.0615C14.9137 13.2093 15.3398 12.1816 15.3398 10.9785C15.3398 9.77539 14.9137 8.74772 14.0615 7.89551C13.2093 7.04329 12.1816 6.61719 10.9785 6.61719C9.77539 6.61719 8.74772 7.04329 7.89551 7.89551C7.04329 8.74772 6.61719 9.77539 6.61719 10.9785C6.61719 12.1816 7.04329 13.2093 7.89551 14.0615C8.74772 14.9137 9.77539 15.3398 10.9785 15.3398ZM10.9785 5.39258C12.5254 5.39258 13.8431 5.93685 14.9316 7.02539C16.0202 8.11393 16.5645 9.43164 16.5645 10.9785C16.5645 12.5254 16.0202 13.8431 14.9316 14.9316C13.8431 16.0202 12.5254 16.5645 10.9785 16.5645C9.43164 16.5645 8.11393 16.0202 7.02539 14.9316C5.93685 13.8431 5.39258 12.5254 5.39258 10.9785C5.39258 9.43164 5.93685 8.11393 7.02539 7.02539C8.11393 5.93685 9.43164 5.39258 10.9785 5.39258ZM18.1113 5.17773C18.1113 5.53581 17.9824 5.84017 17.7246 6.09082C17.4668 6.34147 17.1517 6.4668 16.7793 6.4668C16.4212 6.4668 16.1169 6.34147 15.8662 6.09082C15.6156 5.84017 15.4902 5.53581 15.4902 5.17773C15.4902 4.80534 15.6156 4.49023 15.8662 4.23242C16.1169 3.97461 16.4212 3.8457 16.7793 3.8457C17.1374 3.8457 17.4489 3.97819 17.7139 4.24316C17.9788 4.50814 18.1113 4.81966 18.1113 5.17773Z"/>
</svg>
