<svg width="22" height="22" viewBox="0 0 22 22" xmlns="http://www.w3.org/2000/svg">
<path d="M0 6.98128C0 6.3636 0.42029 6.03054 1.26087 5.9821L4.5 6.00026C4.71739 6.00026 4.86232 6.0911 4.93478 6.27277C5.26812 7.18112 5.6413 7.96533 6.05435 8.6254C6.46739 9.28547 7.00725 10.0455 7.67391 10.9054C7.73188 11.0144 7.82609 11.0689 7.95652 11.0689C8.05797 11.0689 8.13768 11.0265 8.19565 10.9417L8.26087 10.7419L8.28261 7.59897C8.28261 7.38096 8.22101 7.23562 8.09783 7.16296C7.97464 7.09029 7.74638 7.03579 7.41304 6.99945C7.15217 6.96312 7.02174 6.82989 7.02174 6.59978C7.02174 6.55133 7.02899 6.515 7.04348 6.49077C7.34783 5.70353 8.21739 5.30992 9.65217 5.30992L10.8696 5.29175C11.4203 5.29175 11.8768 5.40681 12.2391 5.63692C12.6014 5.86704 12.7826 6.23038 12.7826 6.72695V10.8509C12.8841 10.9114 12.9783 10.9417 13.0652 10.9417C13.2826 10.9417 13.471 10.8327 13.6304 10.6147C15.2246 8.74955 16.087 7.50207 16.2174 6.87228C16.2174 6.86017 16.2319 6.82989 16.2609 6.78145C16.3623 6.59978 16.529 6.44233 16.7609 6.3091C16.9928 6.17588 17.1957 6.08504 17.3696 6.0366C17.4275 6.01237 17.4928 6.00026 17.5652 6.00026H20.9348L21.1522 6.01843C21.442 6.01843 21.6667 6.13349 21.8261 6.3636C21.8841 6.43627 21.9239 6.515 21.9457 6.59978C21.9674 6.68456 21.9819 6.76934 21.9891 6.85412C21.9964 6.9389 22 6.98734 22 6.99945V7.12662C21.8986 7.62319 21.6413 8.15306 21.2283 8.71624C20.8152 9.27942 20.2899 9.88802 19.6522 10.542C19.0145 11.196 18.6159 11.626 18.4565 11.8319C18.3261 11.9772 18.2609 12.1105 18.2609 12.2316C18.2609 12.3285 18.3188 12.4375 18.4348 12.5586L21.6087 15.9013C21.7826 16.0951 21.8696 16.307 21.8696 16.5372C21.8696 16.8157 21.7391 17.0458 21.4783 17.2275C21.2174 17.4092 20.9058 17.5121 20.5435 17.5363L20.1739 17.5545H16.8696C16.8551 17.5545 16.8261 17.5575 16.7826 17.5636C16.7391 17.5697 16.7101 17.5727 16.6957 17.5727C16.3768 17.5727 16.0797 17.4576 15.8043 17.2275C15.7029 17.1306 15.0217 16.416 13.7609 15.0838C13.6884 14.999 13.587 14.9203 13.4565 14.8476C13.3986 15.0414 13.3225 15.32 13.2283 15.6833C13.1341 16.0466 13.0652 16.307 13.0217 16.4645L12.9565 16.7733C12.8116 17.1972 12.5072 17.4516 12.0435 17.5363L11.7391 17.5545H9.6087C8.4058 17.5545 7.20652 17.0943 6.01087 16.1738C4.81522 15.2534 3.73913 14.0634 2.78261 12.604C1.82609 11.1446 0.934783 9.44595 0.108696 7.50813C0.0362319 7.35068 0 7.17507 0 6.98128ZM13.0652 11.6866C12.7609 11.6866 12.4855 11.6169 12.2391 11.4776C11.9928 11.3384 11.8696 11.1476 11.8696 10.9054V6.72695C11.8696 6.48472 11.7971 6.31213 11.6522 6.20918C11.5072 6.10624 11.2536 6.05476 10.8913 6.05476L9.65217 6.0911C9.02899 6.0911 8.55797 6.18193 8.23913 6.3636C8.87681 6.61794 9.19565 7.02973 9.19565 7.59897V10.7964C9.16667 11.0992 9.02174 11.3505 8.76087 11.5503C8.5 11.7501 8.21015 11.8501 7.8913 11.8501C7.45652 11.8501 7.12319 11.6744 6.8913 11.3232C5.76087 9.89407 4.92029 8.5376 4.36957 7.25379L4.17391 6.78145L1.28261 6.76328C1.0942 6.76328 0.98913 6.77236 0.967391 6.79053C0.945652 6.8087 0.934783 6.86017 0.934783 6.94495C0.934783 7.05395 0.949275 7.16901 0.978261 7.29013L1.43478 8.30748C2.65217 10.9356 3.97464 13.0067 5.40217 14.5206C6.82971 16.0345 8.23188 16.7915 9.6087 16.7915H11.7826C11.8696 16.7915 11.9348 16.7703 11.9783 16.7279C12.0217 16.6855 12.058 16.6038 12.087 16.4827L12.1304 16.301L12.5435 14.7023C12.6594 14.4843 12.7609 14.3389 12.8478 14.2663C13.0072 14.1331 13.1957 14.0664 13.413 14.0664C13.7609 14.0664 14.1159 14.2421 14.4783 14.5933L16.3261 16.5553C16.442 16.7128 16.5652 16.7915 16.6957 16.7915H20.2826C20.7174 16.7915 20.9348 16.7007 20.9348 16.519C20.9348 16.4584 20.913 16.3979 20.8696 16.3373L17.7174 13.0491C17.471 12.7947 17.3478 12.5222 17.3478 12.2316C17.3478 11.9409 17.4638 11.6623 17.6957 11.3959C17.8841 11.1537 18.25 10.751 18.7935 10.1878C19.337 9.62459 19.8116 9.09775 20.2174 8.60724C20.6232 8.11673 20.8913 7.67163 21.0217 7.27196L21.087 7.03579C21.0725 7.01156 21.0652 6.9722 21.0652 6.9177C21.0652 6.8632 21.058 6.81778 21.0435 6.78145H17.6304C17.413 6.85412 17.2391 6.96312 17.1087 7.10845L16.9783 7.45363C16.6159 8.28931 15.6667 9.57918 14.1304 11.3232C13.8261 11.5654 13.471 11.6866 13.0652 11.6866Z"/>
</svg>
