<svg width="22" height="22" viewBox="0 0 22 22" xmlns="http://www.w3.org/2000/svg">
<path d="M0.0670395 5.48988C0.0670395 4.63485 0.471763 4.17381 1.28121 4.10674L4.40037 4.13189C4.60971 4.13189 4.74927 4.25763 4.81905 4.50911C5.14004 5.76651 5.49941 6.85206 5.89715 7.76577C6.2949 8.67948 6.81476 9.7315 7.45673 10.9218C7.51256 11.0727 7.60327 11.1482 7.72888 11.1482C7.82657 11.1482 7.90333 11.0895 7.95915 10.9721L8.02195 10.6955L8.04289 6.34491C8.04289 6.04313 7.98357 5.84195 7.86495 5.74136C7.74632 5.64077 7.52651 5.56532 7.20553 5.51503C6.95432 5.46473 6.82871 5.28031 6.82871 4.96177C6.82871 4.89471 6.83569 4.84442 6.84965 4.81089C7.14272 3.72114 7.98008 3.17627 9.36173 3.17627L10.534 3.15112C11.0644 3.15112 11.504 3.31039 11.8529 3.62893C12.2018 3.94747 12.3762 4.45043 12.3762 5.13781V10.8464C12.4739 10.9302 12.5646 10.9721 12.6484 10.9721C12.8577 10.9721 13.0391 10.8212 13.1926 10.5195C14.7278 7.93761 15.5582 6.21079 15.6838 5.33899C15.6838 5.32223 15.6977 5.28031 15.7257 5.21325C15.8233 4.96177 15.9838 4.74383 16.2071 4.55941C16.4304 4.37499 16.6258 4.24925 16.7933 4.18219C16.8491 4.14866 16.9119 4.13189 16.9817 4.13189H20.2265L20.4358 4.15704C20.7149 4.15704 20.9312 4.31631 21.0848 4.63485C21.1406 4.73544 21.179 4.84442 21.1999 4.96177C21.2208 5.07913 21.2348 5.19649 21.2418 5.31385C21.2487 5.4312 21.2522 5.49826 21.2522 5.51503V5.69106C21.1545 6.37844 20.9068 7.11192 20.5091 7.89151C20.1113 8.67109 19.6054 9.51355 18.9914 10.4189C18.3773 11.3242 17.9935 11.9194 17.84 12.2044C17.7144 12.4056 17.6516 12.59 17.6516 12.7576C17.6516 12.8918 17.7074 13.0426 17.8191 13.2103L20.8754 17.8375C21.0429 18.1058 21.1266 18.3992 21.1266 18.7177C21.1266 19.1033 21.001 19.4218 20.7498 19.6733C20.4986 19.9248 20.1985 20.0673 19.8496 20.1008L19.4938 20.126H16.3118C16.2979 20.126 16.2699 20.1302 16.2281 20.1385C16.1862 20.1469 16.1583 20.1511 16.1443 20.1511C15.8373 20.1511 15.5512 19.9919 15.286 19.6733C15.1883 19.5392 14.5324 18.55 13.3182 16.7059C13.2485 16.5885 13.1508 16.4795 13.0252 16.3789C12.9693 16.6472 12.8961 17.0328 12.8054 17.5357C12.7147 18.0387 12.6484 18.3992 12.6065 18.6171L12.5437 19.0446C12.4041 19.6314 12.1111 19.9835 11.6645 20.1008L11.3714 20.126H9.31986C8.16151 20.126 7.00665 19.4889 5.85528 18.2147C4.70392 16.9406 3.66768 15.2934 2.74659 13.2732C1.82549 11.2529 0.967201 8.90162 0.171709 6.21917C0.101929 6.00122 0.0670395 5.75813 0.0670395 5.48988ZM12.6484 12.0032C12.3553 12.0032 12.0901 11.9068 11.8529 11.714C11.6156 11.5212 11.497 11.2571 11.497 10.9218V5.13781C11.497 4.8025 11.4272 4.5636 11.2877 4.42109C11.1481 4.27859 10.9039 4.20734 10.555 4.20734L9.36173 4.25763C8.76162 4.25763 8.30805 4.38337 8.00102 4.63485C8.61508 4.98692 8.92211 5.55694 8.92211 6.34491V10.7709C8.8942 11.1901 8.75464 11.538 8.50343 11.8146C8.25222 12.0912 7.97311 12.2295 7.66607 12.2295C7.24739 12.2295 6.92641 11.9864 6.70311 11.5002C5.61454 9.52193 4.8051 7.64422 4.27477 5.8671L4.08636 5.21325L1.30214 5.18811C1.12072 5.18811 1.01954 5.20068 0.998602 5.22583C0.977668 5.25098 0.967201 5.32223 0.967201 5.43958C0.967201 5.59047 0.981157 5.74974 1.00907 5.9174L1.44868 7.32568C2.62098 10.9637 3.89447 13.8306 5.26913 15.9263C6.6438 18.0219 7.99404 19.0698 9.31986 19.0698H11.4133C11.497 19.0698 11.5598 19.0404 11.6017 18.9817C11.6435 18.9231 11.6784 18.8099 11.7063 18.6422L11.7482 18.3908L12.1459 16.1778C12.2576 15.876 12.3553 15.6748 12.439 15.5742C12.5925 15.3898 12.774 15.2976 12.9833 15.2976C13.3182 15.2976 13.6602 15.5407 14.0091 16.0269L15.7885 18.7428C15.9001 18.9608 16.0187 19.0698 16.1443 19.0698H19.5984C20.0171 19.0698 20.2265 18.944 20.2265 18.6925C20.2265 18.6087 20.2055 18.5249 20.1637 18.4411L17.1282 13.8893C16.891 13.5372 16.7724 13.16 16.7724 12.7576C16.7724 12.3553 16.884 11.9697 17.1073 11.6008C17.2887 11.2655 17.6411 10.7081 18.1645 9.92849C18.6878 9.1489 19.1449 8.41961 19.5356 7.74062C19.9264 7.06163 20.1846 6.4455 20.3102 5.89225L20.373 5.56532C20.359 5.53179 20.3521 5.47731 20.3521 5.40186C20.3521 5.32642 20.3451 5.26355 20.3311 5.21325H17.0445C16.8352 5.31385 16.6677 5.46473 16.5421 5.66592L16.4165 6.14373C16.0676 7.30053 15.1535 9.08603 13.6741 11.5002C13.381 11.8355 13.0391 12.0032 12.6484 12.0032Z"/>
</svg>

