<svg width="22" height="22" viewBox="0 0 22 22" xmlns="http://www.w3.org/2000/svg">
<path fill-rule="evenodd" clip-rule="evenodd" d="M10.124 2.75681C11.0875 1.81207 12.392 1.2832 13.75 1.2832H16.5C16.8038 1.2832 17.05 1.52945 17.05 1.8332V5.42855C17.05 5.7323 16.8038 5.97855 16.5 5.97855H13.75C13.6493 5.97855 13.5549 6.01787 13.4869 6.08452C13.4193 6.15081 13.3833 6.23839 13.3833 6.32738V8.47389H16.5C16.6698 8.47389 16.8301 8.55233 16.9343 8.68643C17.0385 8.82052 17.0749 8.99522 17.033 9.15977L16.1163 12.7551C16.0542 12.9987 15.8348 13.1692 15.5833 13.1692H13.3833V19.8099C13.3833 20.1137 13.1371 20.3599 12.8333 20.3599H9.16667C8.86291 20.3599 8.61667 20.1137 8.61667 19.8099V13.1692H6.41667C6.11291 13.1692 5.86667 12.923 5.86667 12.6192V9.02389C5.86667 8.72013 6.11291 8.47389 6.41667 8.47389H8.61667V6.32738C8.61667 4.98606 9.16018 3.70191 10.124 2.75681ZM13.75 2.3832C12.6768 2.3832 11.6498 2.80132 10.8942 3.54223C10.1389 4.28277 9.71667 5.28485 9.71667 6.32738V9.02389C9.71667 9.32765 9.47043 9.57389 9.16667 9.57389H6.96667V12.0692H9.16667C9.47043 12.0692 9.71667 12.3155 9.71667 12.6192V19.2599H12.2833V12.6192C12.2833 12.3155 12.5296 12.0692 12.8333 12.0692H15.156L15.7922 9.57389H12.8333C12.5296 9.57389 12.2833 9.32765 12.2833 9.02389V6.32738C12.2833 5.9396 12.4405 5.56994 12.7168 5.2991C12.9926 5.02862 13.3645 4.87855 13.75 4.87855H15.95V2.3832H13.75Z"/>
</svg>


